# xmcd
#
# Track frame offsets: 
#        150
#        6933
#        27287
#        50934
#        75527
#        92951
#        110720
#        116976
#        141485
#        163942
#        178518
#        195758
#        198359
#        215099
#        222015
#        239075
#        258588
#
# Disc length: 3799 seconds
#
# Revision: 0
# Processed by: cddbd v1.5.1PL2 Copyright (c) Steve Scherf et al.
# Submitted via: ExactAudioCopy v0.90b4
#
DISCID=070ed511
DTITLE=India Arie - Testimony: Vol. 1, Life and Relationship [UK]
DYEAR=2006
DGENRE=Soul
TTITLE0=Intro: Loving
TTITLE1=These Eyes
TTITLE2=The Heart Of The Matter
TTITLE3=Good Morning
TTITLE4=Private Party
TTITLE5=There's Hope
TTITLE6=Interlude: Living
TTITLE7=India'Song
TTITLE8=Wings Of Forgiveness
TTITLE9=Summer
TTITLE10=I Am Not My Hair (featuring Akon)
TTITLE11=Great Grandmother
TTITLE12=Better People
TTITLE13=Outro: Learning
TTITLE14=I Choose
TTITLE15=I Am Not My Hair (Urban AC Mix)
TTITLE16=This Too Shall Pass
EXTD=
EXTT0=
EXTT1=
EXTT2=
EXTT3=
EXTT4=
EXTT5=
EXTT6=
EXTT7=
EXTT8=
EXTT9=
EXTT10=
EXTT11=
EXTT12=
EXTT13=
EXTT14=
EXTT15=
EXTT16=
PLAYORDER=
